# Blender v2.78 (sub 0) OBJ File: 'untitled.blend'
# www.blender.org
o Cube_Cube.001
v -1.000000 -1.000000 1.000000
v -1.000000 1.000000 1.000000
v -1.000000 -1.000000 -1.000000
v -1.000000 1.000000 -1.000000
v 1.000000 -1.000000 1.000000
v 1.000000 1.000000 1.000000
v 1.000000 -1.000000 -1.000000
v 1.000000 1.000000 -1.000000
v -1.000000 -1.000000 3.000000
v -1.000000 1.000000 3.000000
v 1.000000 1.000000 3.000000
v 1.000000 -1.000000 3.000000
v -1.000000 -1.000000 5.000000
v -1.000000 1.000000 5.000000
v 1.000000 1.000000 5.000000
v 1.000000 -1.000000 5.000000
v -1.000000 1.000000 -3.000000
v -1.000000 -1.000000 -3.000000
v 1.000000 -1.000000 -3.000000
v 1.000000 1.000000 -3.000000
v -1.000000 1.000000 -5.000000
v -1.000000 -1.000000 -5.000000
v 1.000000 -1.000000 -5.000000
v 1.000000 1.000000 -5.000000
v -3.000000 -1.000000 -1.000000
v -3.000000 -1.000000 1.000000
v -3.000000 1.000000 1.000000
v -3.000000 1.000000 -1.000000
v -5.000000 -1.000000 -1.000000
v -5.000000 -1.000000 1.000000
v -5.000000 1.000000 1.000000
v -5.000000 1.000000 -1.000000
v 3.000000 1.000000 -1.000000
v 3.000000 -1.000000 -1.000000
v 3.000000 -1.000000 1.000000
v 3.000000 1.000000 1.000000
v 5.000000 1.000000 -1.000000
v 5.000000 -1.000000 -1.000000
v 5.000000 -1.000000 1.000000
v 5.000000 1.000000 1.000000
v 3.000000 1.000000 -3.000000
v 3.000000 -1.000000 -3.000000
v 5.000000 1.000000 -3.000000
v 5.000000 -1.000000 -3.000000
v 3.000000 1.000000 -5.000000
v 3.000000 -1.000000 -5.000000
v 5.000000 1.000000 -5.000000
v 5.000000 -1.000000 -5.000000
v -3.000000 -1.000000 3.000000
v -3.000000 1.000000 3.000000
v -5.000000 -1.000000 3.000000
v -5.000000 1.000000 3.000000
v -3.000000 -1.000000 5.000000
v -3.000000 1.000000 5.000000
v -5.000000 -1.000000 5.000000
v -5.000000 1.000000 5.000000
v 3.000000 1.000000 3.000000
v 3.000000 -1.000000 3.000000
v 3.000000 1.000000 5.000000
v 3.000000 -1.000000 5.000000
v 5.000000 1.000000 3.000000
v 5.000000 -1.000000 3.000000
v 5.000000 1.000000 5.000000
v 5.000000 -1.000000 5.000000
v -3.000000 1.000000 -3.000000
v -3.000000 -1.000000 -3.000000
v -3.000000 1.000000 -5.000000
v -3.000000 -1.000000 -5.000000
v -5.000000 1.000000 -3.000000
v -5.000000 -1.000000 -3.000000
v -5.000000 1.000000 -5.000000
v -5.000000 -1.000000 -5.000000
vn 0.0000 0.0000 1.0000
vn 1.0000 0.0000 0.0000
vn 0.0000 0.0000 -1.0000
vn 0.0000 -1.0000 0.0000
vn -1.0000 0.0000 0.0000
vn 0.0000 1.0000 0.0000
s off
f 16//1 60//1 15//1
f 50//2 53//2 49//2
f 6//2 12//2 5//2
f 22//3 68//3 21//3
f 65//1 70//1 66//1
f 5//4 3//4 7//4
f 9//5 14//5 10//5
f 38//2 44//2 37//2
f 4//5 18//5 3//5
f 2//1 26//1 1//1
f 4//6 27//6 2//6
f 1//4 25//4 3//4
f 7//4 35//4 5//4
f 6//6 33//6 8//6
f 8//3 34//3 7//3
f 59//6 61//6 57//6
f 49//4 51//4 30//4
f 45//3 48//3 46//3
f 58//4 64//4 60//4
f 25//3 32//3 28//3
f 42//4 44//4 38//4
f 23//2 20//2 19//2
f 54//1 55//1 53//1
f 31//6 52//6 27//6
f 67//6 69//6 65//6
f 41//5 46//5 42//5
f 66//4 72//4 68//4
f 61//2 64//2 62//2
f 61//3 58//3 57//3
f 37//6 43//6 33//6
f 35//1 40//1 36//1
f 69//5 72//5 70//5
f 10//6 11//6 6//6
f 30//5 51//5 31//5
f 59//1 15//1 60//1
f 14//1 13//1 16//1
f 60//1 64//1 63//1
f 14//1 16//1 15//1
f 60//1 63//1 59//1
f 49//2 26//2 27//2
f 50//2 54//2 53//2
f 49//2 27//2 50//2
f 6//2 11//2 12//2
f 67//3 21//3 68//3
f 24//3 23//3 22//3
f 68//3 72//3 71//3
f 24//3 22//3 21//3
f 68//3 71//3 67//3
f 66//1 18//1 17//1
f 65//1 69//1 70//1
f 66//1 17//1 65//1
f 19//4 7//4 18//4
f 12//4 16//4 13//4
f 23//4 19//4 22//4
f 5//4 12//4 9//4
f 9//4 1//4 5//4
f 12//4 13//4 9//4
f 22//4 19//4 18//4
f 1//4 3//4 5//4
f 18//4 7//4 3//4
f 10//5 2//5 1//5
f 9//5 13//5 14//5
f 10//5 1//5 9//5
f 43//2 37//2 44//2
f 40//2 39//2 38//2
f 44//2 48//2 47//2
f 40//2 38//2 37//2
f 44//2 47//2 43//2
f 4//5 17//5 18//5
f 2//1 27//1 26//1
f 4//6 28//6 27//6
f 1//4 26//4 25//4
f 7//4 34//4 35//4
f 6//6 36//6 33//6
f 8//3 33//3 34//3
f 57//6 11//6 15//6
f 59//6 63//6 61//6
f 57//6 15//6 59//6
f 29//4 25//4 26//4
f 49//4 53//4 55//4
f 29//4 26//4 30//4
f 55//4 51//4 49//4
f 30//4 26//4 49//4
f 45//3 47//3 48//3
f 60//4 16//4 12//4
f 58//4 62//4 64//4
f 60//4 12//4 58//4
f 28//3 4//3 3//3
f 25//3 29//3 32//3
f 28//3 3//3 25//3
f 39//4 35//4 34//4
f 42//4 46//4 48//4
f 39//4 34//4 38//4
f 48//4 44//4 42//4
f 38//4 34//4 42//4
f 7//2 19//2 20//2
f 23//2 24//2 20//2
f 20//2 8//2 7//2
f 54//1 56//1 55//1
f 50//6 27//6 52//6
f 28//6 32//6 31//6
f 52//6 56//6 54//6
f 28//6 31//6 27//6
f 52//6 54//6 50//6
f 65//6 17//6 21//6
f 67//6 71//6 69//6
f 65//6 21//6 67//6
f 42//5 34//5 33//5
f 41//5 45//5 46//5
f 42//5 33//5 41//5
f 68//4 22//4 18//4
f 66//4 70//4 72//4
f 68//4 18//4 66//4
f 61//2 63//2 64//2
f 11//3 57//3 58//3
f 61//3 62//3 58//3
f 58//3 12//3 11//3
f 41//6 33//6 43//6
f 36//6 40//6 37//6
f 43//6 47//6 45//6
f 36//6 37//6 33//6
f 43//6 45//6 41//6
f 36//1 6//1 5//1
f 35//1 39//1 40//1
f 36//1 5//1 35//1
f 69//5 71//5 72//5
f 6//6 8//6 4//6
f 20//6 24//6 21//6
f 17//6 4//6 8//6
f 20//6 21//6 17//6
f 15//6 11//6 14//6
f 8//6 20//6 17//6
f 2//6 10//6 6//6
f 6//6 4//6 2//6
f 14//6 11//6 10//6
f 52//5 31//5 51//5
f 32//5 29//5 30//5
f 51//5 55//5 56//5
f 32//5 30//5 31//5
f 51//5 56//5 52//5
